<?xml version="1.0" encoding="UTF-8"?>
<svg width="800" height="600" xmlns="http://www.w3.org/2000/svg">
  <defs>
    <marker id="arrowhead" markerWidth="10" markerHeight="7" 
     refX="9" refY="3.5" orient="auto">
      <polygon points="0 0, 10 3.5, 0 7" fill="#333" />
    </marker>
    <style>
      .commit { fill: #4CAF50; stroke: #2E7D32; stroke-width: 2; }
      .branch-line { stroke: #2196F3; stroke-width: 3; fill: none; marker-end: url(#arrowhead); }
      .merge-line { stroke: #FF9800; stroke-width: 2; fill: none; marker-end: url(#arrowhead); }
      .text { font-family: 'Courier New', monospace; font-size: 12px; fill: #333; }
      .branch-label { font-family: Arial, sans-serif; font-size: 11px; fill: #666; font-weight: bold; }
      .title { font-family: Arial, sans-serif; font-size: 16px; fill: #1976D2; font-weight: bold; }
    </style>
  </defs>
  
  <!-- Title -->
  <text x="400" y="30" text-anchor="middle" class="title">Experimentation and Prototyping Workflow</text>
  
  <!-- Main branch commits -->
  <circle cx="100" cy="100" r="15" class="commit"/>
  <text x="100" y="135" text-anchor="middle" class="text">A</text>
  <text x="100" y="150" text-anchor="middle" class="branch-label">Initial</text>
  
  <line x1="115" y1="100" x2="185" y2="100" class="branch-line"/>
  <circle cx="200" cy="100" r="15" class="commit"/>
  <text x="200" y="135" text-anchor="middle" class="text">B</text>
  <text x="200" y="150" text-anchor="middle" class="branch-label">Core Features</text>
  
  <line x1="215" y1="100" x2="285" y2="100" class="branch-line"/>
  <circle cx="300" cy="100" r="15" class="commit"/>
  <text x="300" y="135" text-anchor="middle" class="text">C</text>
  <text x="300" y="150" text-anchor="middle" class="branch-label">Base API</text>
  
  <!-- Experimental branch 1: UI redesign -->
  <line x1="215" y1="100" x2="285" y2="200" class="branch-line"/>
  <circle cx="300" cy="200" r="15" class="commit"/>
  <text x="300" y="235" text-anchor="middle" class="text">D</text>
  <text x="300" y="250" text-anchor="middle" class="branch-label">UI Experiment</text>
  
  <line x1="315" y1="200" x2="385" y2="200" class="branch-line"/>
  <circle cx="400" cy="200" r="15" class="commit"/>
  <text x="400" y="235" text-anchor="middle" class="text">E</text>
  <text x="400" y="250" text-anchor="middle" class="branch-label">React Components</text>
  
  <!-- Experimental branch 2: Performance optimization -->
  <line x1="215" y1="100" x2="285" y2="300" class="branch-line"/>
  <circle cx="300" cy="300" r="15" class="commit"/>
  <text x="300" y="335" text-anchor="middle" class="text">F</text>
  <text x="300" y="350" text-anchor="middle" class="branch-label">Performance</text>
  
  <line x1="315" y1="300" x2="385" y2="300" class="branch-line"/>
  <circle cx="400" cy="300" r="15" class="commit"/>
  <text x="400" y="335" text-anchor="middle" class="text">G</text>
  <text x="400" y="350" text-anchor="middle" class="branch-label">Caching Layer</text>
  
  <!-- Experimental branch 3: Database experiment -->
  <line x1="315" y1="100" x2="385" y2="400" class="branch-line"/>
  <circle cx="400" cy="400" r="15" class="commit"/>
  <text x="400" y="435" text-anchor="middle" class="text">H</text>
  <text x="400" y="450" text-anchor="middle" class="branch-label">NoSQL Experiment</text>
  
  <line x1="415" y1="400" x2="485" y2="400" class="branch-line"/>
  <circle cx="500" cy="400" r="15" class="commit"/>
  <text x="500" y="435" text-anchor="middle" class="text">I</text>
  <text x="500" y="450" text-anchor="middle" class="branch-label">MongoDB Integration</text>
  
  <!-- Merge successful experiments back to main -->
  <line x1="315" y1="100" x2="485" y2="100" class="branch-line"/>
  <circle cx="500" cy="100" r="15" class="commit"/>
  <text x="500" y="135" text-anchor="middle" class="text">J</text>
  <text x="500" y="150" text-anchor="middle" class="branch-label">Merge Point</text>
  
  <!-- Merge lines from successful experiments -->
  <line x1="415" y1="200" x2="485" y2="100" class="merge-line"/>
  <line x1="415" y1="300" x2="485" y2="100" class="merge-line"/>
  
  <!-- Continue main development -->
  <line x1="515" y1="100" x2="585" y2="100" class="branch-line"/>
  <circle cx="600" cy="100" r="15" class="commit"/>
  <text x="600" y="135" text-anchor="middle" class="text">K</text>
  <text x="600" y="150" text-anchor="middle" class="branch-label">Refined Product</text>
  
  <!-- Branch labels -->
  <text x="50" y="90" class="branch-label">main</text>
  <text x="250" y="190" class="branch-label">experiment/ui-redesign</text>
  <text x="250" y="290" class="branch-label">experiment/performance</text>
  <text x="350" y="390" class="branch-label">experiment/nosql-db</text>
  
  <!-- Legend -->
  <rect x="50" y="500" width="700" height="80" fill="#f5f5f5" stroke="#ddd" stroke-width="1"/>
  <text x="60" y="520" class="title">Mathematical Properties:</text>
  <text x="60" y="540" class="text">• Parallel experimental branches create multiple DAG paths</text>
  <text x="60" y="555" class="text">• Successful experiments merge back (commits D,E,F,G → J)</text>
  <text x="60" y="570" class="text">• Failed experiments can be abandoned (commit H,I not merged)</text>
  
</svg>